# xmcd CD database file
#
# Track frame offsets:
#	150
#	12373
#	21085
#	34738
#	43528
#	60259
#	68783
#	83137
#	92470
#	107906
#	123477
#	134728
#	148328
#	160631
#
# Disc length: 2302 seconds
#
# Revision: 0
# Processed by: cddbd v1.5.2PL0 Copyright (c) Steve Scherf et al.
# Submitted via: CDex 1.50
#
DISCID=b808fc0e
DTITLE=Les grands duos canadiens - Les grands duos - Canada
DYEAR=1900
DGENRE=Country
TTITLE0=Johanne and Albert Babin - On est fait l'un pour l'autre
TTITLE1=Simone Aubé and Larry Robichaud - Quand tu es près de moi
TTITLE2=Lynda Bonneau and Edmond Duguay - Ma bonne petite fille
TTITLE3=Ginette and Raymond Lavoie - Toi et moi
TTITLE4=Denise and Fabien Larcher - Vingt-cinq ans déjà
TTITLE5=Yvonne and les frères Cormier - Un autre jour
TTITLE6=Les Gémotrix - Dois-je m'en aller
TTITLE7=Olivette and les Frères Gagné - Lettre d'adieu
TTITLE8=Michel and Karine - Envoie un message à mon coeur
TTITLE9=Lorraine Dotte and Mari - Un amour partagé
TTITLE10=Normand Grenier and Suzie Doré - Bonsoir Cécile
TTITLE11=Hubert Leclerc and Huguette - Petit Pierre
TTITLE12=Lionel and Pierre - Les Honky Tonk
TTITLE13=Lise and Lucien Jarry - Maintenant on est marié
EXTD=
EXTT0=
EXTT1=
EXTT2=
EXTT3=
EXTT4=
EXTT5=
EXTT6=
EXTT7=
EXTT8=
EXTT9=
EXTT10=
EXTT11=
EXTT12=
EXTT13=
PLAYORDER=
